<svg xmlns="http://www.w3.org/2000/svg" id="Layer_1" viewBox="0 0 612 792"><defs><style>      .st0 {        fill: #fff;      }    </style></defs><path class="st0" d="M356,346v100h-100v-100h100ZM321.28,414.76c-3.39-7.72,11.53-18.71,13.28-28.71,6.26-35.85-43.5-46.47-54.74-15.74-6.17,16.87,1.77,21.81,9.62,33.75,5.69,8.66-.52,11.02.69,19.8,5.53.35,4.04,2.52,5.84,4.62,6.3,7.31,13.98,7.91,20.6.56,1.13-1.25,1.13-3.18,1.72-3.76,1.88-1.86,6.45-.99,5.54-7.57-.35-2.57-2.42-2.66-2.55-2.95Z"></path><path d="M321.28,414.76c.13.29,2.2.39,2.55,2.95.9,6.58-3.66,5.71-5.54,7.57-.59.58-.59,2.51-1.72,3.76-6.62,7.35-14.3,6.75-20.6-.56-1.81-2.1-.31-4.27-5.84-4.62-1.21-8.78,5-11.14-.69-19.8-7.85-11.94-15.79-16.88-9.62-33.75,11.24-30.73,61-20.11,54.74,15.74-1.75,10-16.67,20.99-13.28,28.71ZM296.1,414.9l20.97-.34c1.73-18.16,22.53-23.8,12.66-44.8-9.28-19.75-40.1-18.49-47.2,2.26-7.09,20.72,11.74,24.7,13.57,42.87ZM320,417h-24.5c-.36,0-1.61,1.03-2.33,1.17l-.17,3.83h27v-5ZM315,425h-17c2.8,7.82,14.4,7.88,17,0Z"></path><path class="st0" d="M296.1,414.9c-1.82-18.17-20.66-22.15-13.57-42.87,7.1-20.75,37.92-22.01,47.2-2.26,9.87,21-10.94,26.63-12.66,44.8l-20.97.34ZM310.75,366.26c-.85-.9-5.41-1.53-6.76-.82-3.07,1.62.24,6.56-8.05,4.1-6.57,3.68-1.8,8.45-2.03,9.82-.25,1.45-4.78,3.41-2.79,9.01.81,2.28,4.42,1.14,5.48,2.58.93,1.26-2.07,5.66,4.14,6.9,4.45.88,6.43-6.49,9.33,1.09l6.89-3.01v-5.47c5,.68,7.57-3.15,5.91-7.84-.48-1.35-2.4-1.37-2.66-1.8-1.4-2.27,1.64-4.49,1.37-5.88-.05-.27-2.53-4.6-2.77-4.74-1.45-.83-4.4.3-6.2-.32s-1.14-2.87-1.85-3.63Z"></path><path class="st0" d="M320,417v5h-27l.17-3.83c.72-.15,1.97-1.17,2.33-1.17h24.5Z"></path><path class="st0" d="M315,425c-2.6,7.88-14.2,7.82-17,0h17Z"></path><path d="M310.75,366.26c.71.75.06,3.01,1.85,3.63s4.74-.51,6.2.32c.24.14,2.72,4.47,2.77,4.74.28,1.39-2.77,3.61-1.37,5.88.26.42,2.18.44,2.66,1.8,1.66,4.68-.91,8.52-5.91,7.84v5.47s-6.88,3.01-6.88,3.01c-2.9-7.58-4.88-.21-9.33-1.09-6.21-1.23-3.21-5.64-4.14-6.9-1.05-1.43-4.66-.29-5.48-2.58-1.99-5.6,2.54-7.56,2.79-9.01.23-1.37-4.54-6.14,2.03-9.82,8.29,2.46,4.98-2.48,8.05-4.1,1.35-.71,5.9-.09,6.76.82ZM319.74,383.22c-.23-.4-1.71-.55-2.15-1.26-2.68-4.39.62-6.32.42-7.44l-1.57-1.46c-6.12,3.81-7.74-4.74-8.96-5.06-2.22-.59-2.05,3.03-3.17,4.06-2.9,2.64-8.91.3-9.32,2.46,5.07,6.4-1.44,7.06-.97,12.43,5.12-.37,6.55,2.27,5.98,7.05,2.9.94,5.11-2.28,7.42-2.05,1.76.18,3.26,2.69,5.57,2.05l1.47-6.04,5.54-.97c-.12-1.23.37-2.67-.26-3.77Z"></path><path class="st0" d="M319.74,383.22c.64,1.1.15,2.54.26,3.77l-5.54.97-1.47,6.04c-2.31.64-3.81-1.87-5.57-2.05-2.31-.24-4.52,2.99-7.42,2.05.57-4.78-.86-7.42-5.98-7.05-.47-5.37,6.04-6.03.97-12.43.42-2.16,6.43.18,9.32-2.46,1.12-1.02.95-4.65,3.17-4.06,1.22.32,2.84,8.88,8.96,5.06l1.57,1.46c.2,1.12-3.1,3.05-.42,7.44.44.72,1.92.86,2.15,1.26ZM302.24,377.24c-4.54,4.54,1.63,14.6,8.34,9.83,7.15-5.09-2.46-15.71-8.34-9.83Z"></path><path d="M302.24,377.24c5.88-5.88,15.49,4.74,8.34,9.83-6.7,4.77-12.87-5.29-8.34-9.83ZM308.9,384.9c1.58-1.1,2.05-7.19-3.2-5.73-5.93,1.65.12,7.88,3.2,5.73Z"></path><path class="st0" d="M308.9,384.9c-3.08,2.15-9.12-4.09-3.2-5.73,5.25-1.46,4.78,4.63,3.2,5.73Z"></path></svg>